<svg width="536" height="299" viewBox="0 0 536 299" fill="none" xmlns="http://www.w3.org/2000/svg">
<path d="M0 57.5L536 10V253.5L0 298.5V57.5Z" fill="#440063"/>
<path d="M357.768 67.2529C332.979 42.4632 303.056 30.0684 267.999 30.0684C232.942 30.0684 203.018 42.4632 178.228 67.2529C153.439 92.0426 141.044 121.966 141.044 157.023C141.044 192.08 153.439 222.003 178.228 246.793C203.018 271.583 232.942 283.977 267.999 283.977C303.056 283.977 332.979 271.583 357.768 246.793C382.558 222.003 394.953 192.08 394.953 157.023C394.953 121.966 382.558 92.0426 357.768 67.2529Z" fill="#00CCBE"/>
<path d="M215.252 203.678C220.889 201.485 223.708 198.823 223.708 195.691C223.708 192.515 220.889 189.808 215.252 187.571C209.615 185.379 202.814 184.282 194.85 184.282C186.887 184.282 180.086 185.379 174.449 187.571C168.811 189.808 165.993 192.515 165.993 195.691C165.993 198.823 168.811 201.485 174.449 203.678C180.086 205.87 186.887 206.966 194.85 206.966C202.814 206.966 209.615 205.87 215.252 203.678Z" fill="#FA5058"/>
<path d="M223.709 195.355V184.214H165.927V195.355H223.709Z" fill="#FA5058"/>
<path d="M215.253 192.198C220.89 189.96 223.709 187.254 223.709 184.077C223.709 180.945 220.89 178.261 215.253 176.024C209.616 173.831 202.815 172.735 194.851 172.735C186.888 172.735 180.065 173.831 174.383 176.024C168.745 178.261 165.927 180.945 165.927 184.077C165.927 187.254 168.745 189.96 174.383 192.198C180.065 194.39 186.888 195.486 194.851 195.486C202.815 195.486 209.616 194.39 215.253 192.198Z" fill="#FABE00"/>
<path d="M215.252 188.439C220.889 186.247 223.708 183.585 223.708 180.453C223.708 177.277 220.889 174.592 215.252 172.4C209.615 170.163 202.814 169.045 194.85 169.045C186.887 169.045 180.086 170.163 174.449 172.4C168.811 174.592 165.993 177.277 165.993 180.453C165.993 183.585 168.811 186.247 174.449 188.439C180.086 190.632 186.887 191.728 194.85 191.728C202.814 191.728 209.615 190.632 215.252 188.439Z" fill="#FA5058"/>
<path d="M223.709 180.185V169.045H165.927V180.185H223.709Z" fill="#FA5058"/>
<path d="M215.253 176.965C220.89 174.728 223.709 172.022 223.709 168.845C223.709 165.713 220.89 163.051 215.253 160.859C209.616 158.622 202.815 157.503 194.851 157.503C186.843 157.503 180.02 158.622 174.383 160.859C168.745 163.051 165.927 165.713 165.927 168.845C165.927 172.022 168.745 174.728 174.383 176.965C180.02 179.247 186.843 180.388 194.851 180.388C202.815 180.388 209.616 179.247 215.253 176.965Z" fill="#FABE00"/>
<path d="M215.252 173.343C220.889 171.15 223.708 168.488 223.708 165.356C223.708 162.18 220.889 159.495 215.252 157.303C209.615 155.066 202.814 153.948 194.85 153.948C186.887 153.948 180.086 155.066 174.449 157.303C168.811 159.495 165.993 162.18 165.993 165.356C165.993 168.488 168.811 171.15 174.449 173.343C180.086 175.624 186.887 176.765 194.85 176.765C202.814 176.765 209.615 175.624 215.252 173.343Z" fill="#FA5058"/>
<path d="M223.709 165.088V153.948H165.927V165.088H223.709Z" fill="#FA5058"/>
<path d="M194.851 142.469C186.843 142.469 180.02 143.565 174.383 145.758C168.745 147.95 165.927 150.657 165.927 153.878C165.927 156.965 168.745 159.627 174.383 161.864C180.02 164.101 186.843 165.22 194.851 165.22C202.815 165.22 209.616 164.101 215.253 161.864C220.89 159.627 223.709 156.965 223.709 153.878C223.709 150.657 220.89 147.95 215.253 145.758C209.616 143.565 202.815 142.469 194.851 142.469Z" fill="#FABE00"/>
<path d="M194.85 138.982C186.887 138.982 180.086 140.078 174.449 142.27C168.811 144.552 165.993 147.259 165.993 150.391C165.993 153.567 168.811 156.252 174.449 158.444C180.086 160.636 186.887 161.732 194.85 161.732C202.814 161.732 209.615 160.636 215.252 158.444C220.889 156.252 223.708 153.567 223.708 150.391C223.708 147.259 220.889 144.552 215.252 142.27C209.615 140.078 202.814 138.982 194.85 138.982Z" fill="#FA5058"/>
<path d="M223.709 138.914H165.927V150.054H223.709V138.914Z" fill="#FA5058"/>
<path d="M165.927 138.849C165.927 141.981 168.745 144.688 174.383 146.969C180.065 149.162 186.888 150.258 194.851 150.258C202.815 150.258 209.616 149.162 215.253 146.969C220.89 144.688 223.709 141.981 223.709 138.849C223.709 135.672 220.89 132.966 215.253 130.728C209.616 128.536 202.815 127.44 194.851 127.44C186.888 127.44 180.065 128.536 174.383 130.728C168.745 132.966 165.927 135.672 165.927 138.849Z" fill="#FABE00"/>
<path d="M174.449 143.41C180.086 145.602 186.887 146.698 194.85 146.698C202.814 146.698 209.615 145.602 215.252 143.41C220.889 141.218 223.708 138.533 223.708 135.356C223.708 132.225 220.889 129.563 215.252 127.37C209.615 125.089 202.814 123.948 194.85 123.948C186.887 123.948 180.086 125.089 174.449 127.37C168.811 129.563 165.993 132.225 165.993 135.356C165.993 138.533 168.811 141.218 174.449 143.41Z" fill="#FA5058"/>
<path d="M165.927 123.948V135.088H223.709V123.948H165.927Z" fill="#FA5058"/>
<path d="M174.383 131.935C180.02 134.172 186.843 135.291 194.851 135.291C202.815 135.291 209.616 134.172 215.253 131.935C220.89 129.653 223.709 126.947 223.709 123.815C223.709 120.638 220.89 117.954 215.253 115.762C209.616 113.524 202.815 112.406 194.851 112.406C186.843 112.406 180.02 113.524 174.383 115.762C168.745 117.954 165.927 120.638 165.927 123.815C165.927 126.947 168.745 129.653 174.383 131.935Z" fill="#FABE00"/>
<path d="M174.449 128.307C180.086 130.544 186.887 131.663 194.85 131.663C202.814 131.663 209.615 130.544 215.252 128.307C220.889 126.115 223.708 123.431 223.708 120.254C223.708 117.122 220.889 114.46 215.252 112.268C209.615 109.986 202.814 108.845 194.85 108.845C186.887 108.845 180.086 109.986 174.449 112.268C168.811 114.46 165.993 117.122 165.993 120.254C165.993 123.431 168.811 126.115 174.449 128.307Z" fill="#FA5058"/>
<path d="M165.927 108.845V119.986H223.709V108.845H165.927Z" fill="#FA5058"/>
<path d="M174.383 116.767C180.02 119.049 186.843 120.189 194.851 120.189C202.815 120.189 209.616 119.049 215.253 116.767C220.89 114.53 223.709 111.868 223.709 108.781C223.709 105.559 220.89 102.852 215.253 100.66C209.616 98.4679 202.815 97.3718 194.851 97.3718C186.843 97.3718 180.02 98.4679 174.383 100.66C168.745 102.852 165.927 105.559 165.927 108.781C165.927 111.868 168.745 114.53 174.383 116.767Z" fill="#FABE00"/>
<path d="M373.5 202.869V202.197C373.276 195.307 366.23 189.402 352.36 184.48C338.804 179.693 322.563 177.187 303.638 176.964H301.356C301.177 176.964 301.021 176.964 300.886 176.964C281.961 177.187 265.698 179.693 252.097 184.48C238.227 189.402 231.181 195.307 230.957 202.197V202.869C231.181 209.759 238.227 215.664 252.097 220.586C265.698 225.373 281.961 227.879 300.886 228.102C301.021 228.102 301.177 228.102 301.356 228.102C301.938 228.102 302.542 228.102 303.168 228.102C303.302 228.102 303.459 228.102 303.638 228.102C322.563 227.879 338.804 225.373 352.36 220.586C366.23 215.664 373.276 209.759 373.5 202.869Z" fill="#007E8A"/>
<path d="M331.909 52.08V30.0684H244.176V52.08C244.085 57.429 242.162 62.0206 238.409 65.8549C237.677 66.6122 236.899 67.3224 236.075 67.9851V68.0559C235.252 68.6714 234.474 69.3578 233.742 70.1151C229.943 74.044 227.998 78.7305 227.906 84.1741V201.83C228.089 207.841 234.039 213.001 245.755 217.309C257.196 221.474 270.903 223.652 286.876 223.841C287.013 223.841 287.15 223.841 287.288 223.841C287.791 223.841 288.294 223.841 288.798 223.841C288.935 223.841 289.072 223.841 289.21 223.841C305.182 223.652 318.889 221.474 330.33 217.309C342.046 213.001 347.996 207.841 348.179 201.83V84.1741C348.087 78.7305 346.142 74.044 342.344 70.1151C341.612 69.3578 340.833 68.6714 340.01 68.0559V67.9851C339.186 67.3224 338.408 66.6122 337.676 65.8549C333.923 62.0206 332.001 57.429 331.909 52.08Z" fill="white"/>
<path d="M334.375 31.5356V31.267C334.286 27.2852 329.812 23.8626 320.953 20.9992C312.05 18.1358 301.312 16.7041 288.74 16.7041C276.123 16.7041 265.341 18.1358 256.393 20.9992C247.624 23.8626 243.194 27.2852 243.105 31.267V31.5356C243.194 35.5175 247.624 38.9178 256.393 41.7365C256.885 41.9153 257.4 42.0718 257.936 42.2063C266.571 44.8011 276.839 46.0987 288.74 46.0987C300.596 46.0987 310.842 44.8011 319.477 42.2063C319.969 42.0718 320.461 41.9153 320.953 41.7365C329.812 38.9178 334.286 35.5175 334.375 31.5356Z" fill="#F84F57"/>
<path d="M314.511 37.4418C321.669 35.518 325.248 33.2364 325.248 30.5966C325.248 27.9569 321.669 25.6751 314.511 23.7513C307.397 21.8722 298.829 20.9326 288.807 20.9326C278.696 20.9326 270.083 21.8722 262.969 23.7513C255.856 25.6751 252.299 27.9569 252.299 30.5966C252.299 33.2364 255.856 35.518 262.969 37.4418C270.083 39.321 278.696 40.2605 288.807 40.2605C298.829 40.2605 307.397 39.321 314.511 37.4418Z" fill="#FABE00"/>
<path d="M309.275 33.3461V28.6482H267.599V33.3461H309.275Z" fill="#450064"/>
<path d="M229.348 202.2V202.737C229.527 208.419 235.343 213.296 246.797 217.368C257.982 221.305 271.381 223.363 286.996 223.542C287.13 223.542 287.264 223.542 287.399 223.542C287.891 223.542 288.383 223.542 288.875 223.542C289.009 223.542 289.143 223.542 289.277 223.542C304.892 223.363 318.292 221.305 329.477 217.368C340.93 213.296 346.747 208.419 346.926 202.737V202.2C346.747 196.518 340.93 191.642 329.477 187.57C318.292 183.633 304.892 181.575 289.277 181.396H287.399C287.264 181.396 287.13 181.396 286.996 181.396C271.381 181.575 257.982 183.633 246.797 187.57C235.343 191.642 229.527 196.518 229.348 202.2Z" fill="#00CCBE"/>
<path d="M286.389 125.358C281.646 130.1 279.275 135.782 279.275 142.404C279.275 149.026 281.646 154.685 286.389 159.383C291.131 164.125 296.791 166.496 303.368 166.496C310.034 166.496 315.716 164.125 320.414 159.383C325.067 154.685 327.394 149.026 327.394 142.404C327.394 135.782 325.067 130.1 320.414 125.358C315.716 120.705 310.034 118.378 303.368 118.378C296.791 118.378 291.131 120.705 286.389 125.358Z" fill="#FABE00"/>
<path d="M234.785 188.441C234.785 191.304 237.358 193.742 242.503 195.756C247.648 197.769 253.845 198.776 261.093 198.776C268.385 198.776 274.604 197.769 279.749 195.756C284.894 193.742 287.467 191.304 287.467 188.441C287.467 185.577 284.894 183.139 279.749 181.126C274.604 179.068 268.385 178.039 261.093 178.039C253.845 178.039 247.648 179.068 242.503 181.126C237.358 183.139 234.785 185.577 234.785 188.441Z" fill="#FA5058"/>
<path d="M234.713 178.039V188.239H287.462V178.039H234.713Z" fill="#FA5058"/>
<path d="M234.713 177.907C234.713 180.77 237.264 183.231 242.364 185.289C247.509 187.347 253.75 188.376 261.088 188.376C268.38 188.376 274.599 187.347 279.745 185.289C284.89 183.231 287.462 180.77 287.462 177.907C287.462 174.999 284.89 172.56 279.745 170.592C274.599 168.534 268.38 167.505 261.088 167.505C253.75 167.505 247.509 168.534 242.364 170.592C237.264 172.56 234.713 174.999 234.713 177.907Z" fill="#FABE00"/>
<path d="M335.179 203.941C340.324 201.928 342.897 199.489 342.897 196.626C342.897 193.763 340.324 191.302 335.179 189.244C330.034 187.231 323.815 186.224 316.522 186.224C309.274 186.224 303.078 187.231 297.933 189.244C292.787 191.302 290.215 193.763 290.215 196.626C290.215 199.489 292.787 201.928 297.933 203.941C303.078 205.954 309.274 206.961 316.522 206.961C323.815 206.961 330.034 205.954 335.179 203.941Z" fill="#FA5058"/>
<path d="M342.899 196.291V186.157H290.149V196.291H342.899Z" fill="#FA5058"/>
<path d="M335.181 193.473C340.326 191.415 342.899 188.954 342.899 186.091C342.899 183.183 340.326 180.7 335.181 178.642C330.036 176.628 323.817 175.622 316.524 175.622C309.276 175.622 303.057 176.628 297.867 178.642C292.722 180.7 290.149 183.183 290.149 186.091C290.149 188.954 292.722 191.415 297.867 193.473C303.057 195.487 309.276 196.493 316.524 196.493C323.817 196.493 330.036 195.487 335.181 193.473Z" fill="#FABE00"/>
<path d="M272.768 199.984C265.52 199.984 259.324 201.013 254.179 203.071C249.033 205.085 246.461 207.546 246.461 210.454C246.461 213.317 249.033 215.755 254.179 217.769C259.324 219.827 265.52 220.856 272.768 220.856C280.061 220.856 286.28 219.827 291.425 217.769C296.57 215.755 299.143 213.317 299.143 210.454C299.143 207.546 296.57 205.085 291.425 203.071C286.28 201.013 280.061 199.984 272.768 199.984Z" fill="#FA5058"/>
<path d="M246.395 199.984V210.185H299.144V199.984H246.395Z" fill="#FA5058"/>
<path d="M254.113 207.297C259.258 209.311 265.477 210.317 272.77 210.317C280.062 210.317 286.281 209.311 291.426 207.297C296.572 205.239 299.144 202.779 299.144 199.915C299.144 197.007 296.572 194.546 291.426 192.533C286.281 190.52 280.062 189.513 272.77 189.513C265.477 189.513 259.258 190.52 254.113 192.533C248.968 194.546 246.395 197.007 246.395 199.915C246.395 202.779 248.968 205.239 254.113 207.297Z" fill="#FABE00"/>
<path d="M254.446 177.369C254.446 180.232 257.018 182.671 262.164 184.684C267.309 186.698 273.505 187.704 280.753 187.704C288.046 187.704 294.265 186.698 299.41 184.684C304.555 182.671 307.128 180.232 307.128 177.369C307.128 174.461 304.555 172.023 299.41 170.054C294.265 167.996 288.046 166.967 280.753 166.967C273.505 166.967 267.309 167.996 262.164 170.054C257.018 172.023 254.446 174.461 254.446 177.369Z" fill="#FA5058"/>
<path d="M254.38 177.101H307.13V166.967H254.38V177.101Z" fill="#FA5058"/>
<path d="M254.38 166.767C254.38 169.675 256.953 172.158 262.098 174.216C267.243 176.274 273.462 177.303 280.755 177.303C288.048 177.303 294.267 176.274 299.412 174.216C304.557 172.158 307.13 169.675 307.13 166.767C307.13 163.903 304.557 161.465 299.412 159.452C294.267 157.394 288.048 156.365 280.755 156.365C273.462 156.365 267.243 157.394 262.098 159.452C256.953 161.465 254.38 163.903 254.38 166.767Z" fill="#FABE00"/>
<path d="M241.83 175.289C243.262 177.794 246.685 178.689 252.098 177.973C257.601 177.257 263.507 175.154 269.816 171.665C276.213 168.085 281.18 164.171 284.714 159.92C288.249 155.67 289.3 152.27 287.868 149.719C286.481 147.214 283.059 146.319 277.6 147.035C272.097 147.751 266.169 149.876 259.816 153.411C253.463 156.945 248.519 160.837 244.985 165.088C241.495 169.338 240.443 172.738 241.83 175.289Z" fill="#FA5058"/>
<path d="M236.729 166.159L241.696 175.085L287.801 149.583L282.835 140.657L236.729 166.159Z" fill="#FA5058"/>
<path d="M272.501 137.771C266.997 138.487 261.069 140.635 254.716 144.214C248.318 147.704 243.375 151.596 239.885 155.891C236.35 160.186 235.276 163.587 236.663 166.092C238.05 168.598 241.518 169.515 247.066 168.844C252.524 168.128 258.43 166.025 264.783 162.535C271.181 159.001 276.147 155.064 279.681 150.724C283.126 146.474 284.155 143.096 282.768 140.59C281.381 138.04 277.959 137.1 272.501 137.771Z" fill="#FABE00"/>
<path d="M320.282 187.234C325.472 189.248 329.007 189.181 330.886 187.033C332.899 184.93 332.698 181.418 330.282 176.497C327.866 171.53 323.973 166.542 318.605 161.531C313.325 156.609 308.09 153.142 302.9 151.129C297.755 149.115 294.199 149.183 292.23 151.33C290.306 153.522 290.552 157.057 292.968 161.934C295.339 166.9 299.187 171.866 304.511 176.832C309.88 181.709 315.137 185.176 320.282 187.234Z" fill="#FA5058"/>
<path d="M331.023 186.899L338.002 179.45L299.279 143.68L292.434 151.129L331.023 186.899Z" fill="#FA5058"/>
<path d="M310.013 143.408C304.868 141.395 301.311 141.44 299.342 143.542C297.374 145.645 297.575 149.247 299.947 154.347C302.363 159.224 306.255 164.168 311.624 169.179C316.903 174.145 322.16 177.612 327.395 179.581C332.54 181.55 336.097 181.483 338.065 179.38C340.034 177.232 339.833 173.698 337.461 168.776C335.045 163.765 331.153 158.799 325.784 153.877C320.505 148.911 315.248 145.422 310.013 143.408Z" fill="#FABE00"/>
<path d="M218.743 193.473C215.521 191.773 212.009 191.482 208.206 192.601L152.84 208.775C150.916 209.356 149.91 210.005 149.82 210.721H149.753V225.083H149.82C149.641 225.843 150.357 226.626 151.968 227.432L218.407 263.403C221.628 265.148 225.141 265.461 228.943 264.342L284.243 248.169C286.167 247.587 287.218 246.939 287.397 246.223V231.861C287.487 231.145 286.748 230.34 285.182 229.445L218.743 193.473Z" fill="#450064"/>
<path d="M218.744 193.473C215.523 191.773 212.011 191.482 208.208 192.601L152.841 208.775C149.038 209.893 148.748 211.325 151.969 213.07L218.408 248.974C221.63 250.764 225.142 251.099 228.945 249.981L284.244 233.74C288.047 232.621 288.36 231.19 285.184 229.445L218.744 193.473Z" fill="#450064"/>
<path d="M232.369 200.856L219.148 193.742L152.373 213.271L165.593 220.452L232.369 200.856Z" fill="#CCCCCC"/>
<path d="M236.661 234.749L230.285 236.628C228.406 237.21 228.272 237.903 229.883 238.709L235.184 241.595C236.75 242.489 238.473 242.668 240.352 242.131L246.727 240.252C248.607 239.671 248.741 238.955 247.13 238.105L241.895 235.219C240.285 234.369 238.54 234.212 236.661 234.749Z" fill="white"/>
<path d="M221.627 239.178L215.319 240.99C213.395 241.571 213.238 242.287 214.849 243.137L220.151 246.023C221.761 246.873 223.529 247.03 225.452 246.493L231.761 244.614C233.685 244.077 233.841 243.361 232.231 242.466L226.929 239.58C225.318 238.73 223.551 238.596 221.627 239.178Z" fill="white"/>
<path d="M247.466 223.205L252.835 226.091C253.059 226.225 253.305 226.337 253.573 226.426C253.797 226.605 254.043 226.762 254.311 226.896L259.613 229.782C259.658 229.782 259.703 229.804 259.747 229.849C259.792 229.894 259.859 229.916 259.949 229.916L265.251 232.802C266.861 233.697 268.606 233.853 270.485 233.271L276.794 231.392C278.717 230.855 278.897 230.139 277.33 229.245L272.029 226.359C271.939 226.359 271.872 226.337 271.827 226.292C271.783 226.247 271.716 226.225 271.626 226.225L266.391 223.339C266.078 223.205 265.765 223.071 265.452 222.936C265.318 222.847 265.116 222.713 264.848 222.534L259.546 219.648C257.936 218.753 256.168 218.597 254.244 219.178L247.936 221.057C246.012 221.594 245.856 222.31 247.466 223.205Z" fill="#FABE00"/>
<path d="M241.36 212.198L235.052 214.078C233.128 214.614 232.971 215.33 234.582 216.225L239.884 219.111C241.494 219.961 243.262 220.095 245.185 219.514L251.494 217.701C253.418 217.12 253.574 216.404 251.964 215.554L246.595 212.668C245.029 211.818 243.284 211.662 241.36 212.198Z" fill="white"/>
<path d="M228.811 205.418L222.503 207.297C220.579 207.834 220.422 208.55 222.033 209.445L227.335 212.33C228.946 213.18 230.713 213.315 232.636 212.733L238.945 210.854C240.869 210.317 241.025 209.624 239.415 208.774L234.046 205.888C232.48 205.038 230.735 204.881 228.811 205.418Z" fill="white"/>
<path d="M251.697 230.317L245.456 232.196C243.532 232.733 243.353 233.426 244.919 234.277L250.221 237.162C251.831 238.057 253.598 238.214 255.522 237.632L261.831 235.82C263.754 235.239 263.911 234.5 262.301 233.606L256.999 230.787C255.388 229.937 253.621 229.78 251.697 230.317Z" fill="white"/>
<path d="M239.082 223.474L232.773 225.353C230.85 225.935 230.693 226.628 232.304 227.433L237.538 230.319C239.194 231.214 240.983 231.37 242.907 230.789L249.215 228.977C251.139 228.395 251.273 227.657 249.618 226.762L244.316 223.944C242.75 223.093 241.005 222.937 239.082 223.474Z" fill="white"/>
<path d="M226.46 216.625L220.152 218.504C218.228 219.086 218.071 219.802 219.682 220.652L224.984 223.47C226.55 224.365 228.294 224.522 230.218 223.94L236.527 222.128C238.451 221.547 238.607 220.808 236.997 219.913L231.762 217.095C230.151 216.245 228.384 216.088 226.46 216.625Z" fill="white"/>
<path d="M213.78 209.782L207.471 211.661C205.548 212.242 205.391 212.958 207.002 213.808L212.371 216.694C213.937 217.544 215.681 217.678 217.605 217.097L223.914 215.285C225.838 214.703 225.994 213.987 224.383 213.137L219.082 210.252C217.471 209.401 215.704 209.245 213.78 209.782Z" fill="#FABE00"/>
<path d="M224.111 227.901L217.736 229.713C215.812 230.295 215.655 231.011 217.266 231.861L222.568 234.747C224.178 235.596 225.946 235.753 227.87 235.216L234.245 233.337C236.124 232.756 236.258 232.04 234.648 231.189L229.346 228.304C227.735 227.454 225.99 227.32 224.111 227.901Z" fill="white"/>
<path d="M211.496 221.058L205.121 222.87C203.197 223.452 203.04 224.19 204.651 225.085L209.953 227.904C211.563 228.754 213.33 228.91 215.254 228.373L221.563 226.494C223.442 225.913 223.598 225.197 222.032 224.347L216.731 221.528C215.12 220.633 213.375 220.477 211.496 221.058Z" fill="white"/>
<path d="M209.081 232.266L202.773 234.145C200.894 234.682 200.737 235.376 202.303 236.226L207.605 239.112C209.26 240.006 211.05 240.163 212.974 239.581L219.282 237.702C221.161 237.165 221.295 236.449 219.685 235.554L214.383 232.669C212.772 231.819 211.005 231.685 209.081 232.266Z" fill="white"/>
<path d="M196.531 225.422L190.223 227.301C188.299 227.838 188.12 228.554 189.686 229.449L194.988 232.267C196.599 233.162 198.366 233.319 200.29 232.737L206.598 230.858C208.522 230.321 208.679 229.605 207.068 228.711L201.766 225.892C200.156 224.997 198.411 224.84 196.531 225.422Z" fill="white"/>
<path d="M204.049 214.684C202.439 213.789 200.694 213.632 198.815 214.214L177.54 220.455C175.617 220.992 175.46 221.708 177.071 222.603L182.372 225.488C183.983 226.339 185.75 226.473 187.674 225.891L209.015 219.65C210.894 219.068 211.029 218.374 209.418 217.569L204.049 214.684Z" fill="#FA5058"/>
<path d="M310.216 259.647C315.853 261.884 322.654 263.003 330.617 263.003C338.581 263.003 345.382 261.884 351.019 259.647C356.657 257.455 359.475 254.771 359.475 251.594C359.475 248.462 356.657 245.8 351.019 243.608C345.382 241.326 338.581 240.185 330.617 240.185C322.654 240.185 315.853 241.326 310.216 243.608C304.578 245.8 301.76 248.462 301.76 251.594C301.76 254.771 304.578 257.455 310.216 259.647Z" fill="#FA5058"/>
<path d="M301.693 240.185V251.325H359.476V240.185H301.693Z" fill="#FA5058"/>
<path d="M310.149 248.101C315.786 250.383 322.609 251.524 330.618 251.524C338.582 251.524 345.382 250.383 351.02 248.101C356.657 245.864 359.476 243.202 359.476 240.115C359.476 236.894 356.657 234.187 351.02 231.995C345.382 229.803 338.582 228.706 330.618 228.706C322.609 228.706 315.786 229.803 310.149 231.995C304.512 234.187 301.693 236.894 301.693 240.115C301.693 243.202 304.512 245.864 310.149 248.101Z" fill="#FABE00"/>
</svg>
