<svg width="55" height="55" viewBox="0 0 55 55" fill="none" xmlns="http://www.w3.org/2000/svg">
<path fill-rule="evenodd" clip-rule="evenodd" d="M10.6245 10.625C6.14022 15.2947 3.81243 20.8204 3.74951 27.5C3.74951 34.0638 6.07732 39.6631 10.6245 44.375C11.1312 44.717 11.5508 45.1052 11.8745 45.625C16.3537 49.3204 21.5227 51.25 27.4995 51.25C33.4763 51.25 38.6561 49.3204 43.1245 45.625C43.4589 45.1052 43.8785 44.717 44.3745 44.375C48.9324 39.6631 51.2495 34.0638 51.2495 27.5C51.2073 20.8204 48.8902 15.2947 44.3745 10.625C39.6627 6.06713 34.0633 3.75 27.4995 3.75C20.9565 3.75 15.3679 6.06713 10.6245 10.625Z" fill="#00CCBE"/>
<path fill-rule="evenodd" clip-rule="evenodd" d="M13.5424 18.75L10.6245 41.1342L40.2067 45L43.1245 22.6158L13.5424 18.75Z" fill="white"/>
<path fill-rule="evenodd" clip-rule="evenodd" d="M14.6841 11.25L13.437 19.0625L43.1245 22.8125L44.3745 15.1358L14.6841 11.25Z" fill="#007E8A"/>
<path fill-rule="evenodd" clip-rule="evenodd" d="M17.5801 9.77457L16.8873 14.9393C16.8438 15.2561 16.9203 15.5413 17.1183 15.7948C17.3162 16.0483 17.5801 16.1959 17.91 16.2384C18.2399 16.2808 18.5369 16.2067 18.8008 16.0166C19.0872 15.8056 19.2521 15.5413 19.2956 15.2244L19.9884 10.0915C20.0326 9.77457 19.9555 9.48943 19.7575 9.23592C19.5378 8.96092 19.2626 8.80251 18.9327 8.76068C18.6029 8.71817 18.3059 8.80251 18.042 9.01414C17.7781 9.20424 17.6243 9.45775 17.5801 9.77457ZM34.1032 11.0793C33.9072 10.8258 33.6459 10.6775 33.3193 10.6357C32.9926 10.5932 32.6987 10.6775 32.4374 10.8891C32.1761 11.0793 32.0238 11.3327 31.9801 11.6496L31.2615 16.8143C31.2177 17.1312 31.3052 17.4163 31.5228 17.6698C31.7188 17.9233 31.9801 18.0709 32.3067 18.1134C32.6334 18.1558 32.9273 18.0817 33.1886 17.8916C33.4499 17.6806 33.6133 17.4163 33.6786 17.0995L34.3645 11.9664C34.4083 11.6496 34.3208 11.3536 34.1032 11.0793ZM39.2795 11.5141C39.0182 11.7043 38.866 11.9577 38.8222 12.2746L38.1362 17.4393C38.0931 17.7562 38.18 18.0413 38.3975 18.2948C38.5935 18.5483 38.8549 18.6959 39.1816 18.7384C39.5082 18.7808 39.8022 18.7067 40.0635 18.5166C40.3471 18.3056 40.5104 18.0413 40.5535 17.7245L41.2395 12.5914C41.2833 12.253 41.1964 11.9577 40.9782 11.7043C40.7822 11.4508 40.5209 11.3025 40.1942 11.2607C39.8675 11.2182 39.5631 11.3025 39.2795 11.5141ZM26.6014 9.82923C26.404 9.57577 26.141 9.4275 25.8121 9.38568C25.4832 9.34322 25.1873 9.4275 24.9242 9.63914C24.6395 9.82923 24.4855 10.0827 24.4639 10.3996L23.7733 15.5643C23.7075 15.8811 23.7844 16.1663 24.0035 16.4198C24.2008 16.6733 24.4639 16.8209 24.7927 16.8634C25.1215 16.9058 25.4287 16.8317 25.7134 16.6416C25.9765 16.4305 26.1298 16.1663 26.1738 15.8494L26.8644 10.7164C26.9085 10.3996 26.821 10.1037 26.6014 9.82923Z" fill="white"/>
<path fill-rule="evenodd" clip-rule="evenodd" d="M24.7014 24.375L24.999 22.1461L22.7967 21.875L22.499 24.0738L24.7014 24.375Z" fill="#00CCBE"/>
<path fill-rule="evenodd" clip-rule="evenodd" d="M26.8745 24.7289L29.1034 25L29.3745 22.8012L27.1757 22.5L26.8745 24.7289Z" fill="#00CCBE"/>
<path fill-rule="evenodd" clip-rule="evenodd" d="M33.1245 23.4262L30.9258 23.125L30.6245 25.3238L32.8534 25.625L33.1245 23.4262Z" fill="#00CCBE"/>
<path fill-rule="evenodd" clip-rule="evenodd" d="M36.2495 24.0211L34.0174 23.75L33.7495 25.9488L35.9519 26.25L36.2495 24.0211Z" fill="#00CCBE"/>
<path fill-rule="evenodd" clip-rule="evenodd" d="M39.9995 24.0211L37.7971 23.75L37.4995 25.9488L39.7019 26.25L39.9995 24.0211Z" fill="#00CCBE"/>
<path fill-rule="evenodd" clip-rule="evenodd" d="M17.4995 25.2976L15.2706 25L14.9995 27.2023L17.1983 27.5L17.4995 25.2976Z" fill="#00CCBE"/>
<path fill-rule="evenodd" clip-rule="evenodd" d="M19.021 25.625L18.75 27.8539L20.9488 28.125L21.25 25.896L19.021 25.625Z" fill="#00CCBE"/>
<path fill-rule="evenodd" clip-rule="evenodd" d="M24.999 26.521L22.7967 26.25L22.499 28.4488L24.7014 28.75L24.999 26.521Z" fill="#00CCBE"/>
<path fill-rule="evenodd" clip-rule="evenodd" d="M28.7505 27.1726L26.5517 26.875L26.2505 29.0773L28.4794 29.375L28.7505 27.1726Z" fill="#00CCBE"/>
<path fill-rule="evenodd" clip-rule="evenodd" d="M32.5 27.1461L30.3012 26.875L30 29.0738L32.2289 29.375L32.5 27.1461Z" fill="#00CCBE"/>
<path fill-rule="evenodd" clip-rule="evenodd" d="M36.2495 27.7976L34.0174 27.5L33.7495 29.7024L35.9519 30L36.2495 27.7976Z" fill="#00CCBE"/>
<path fill-rule="evenodd" clip-rule="evenodd" d="M39.9995 28.4226L37.7971 28.125L37.4995 30.3274L39.7019 30.625L39.9995 28.4226Z" fill="#00CCBE"/>
<path fill-rule="evenodd" clip-rule="evenodd" d="M16.8745 29.6726L14.6456 29.375L14.3745 31.5774L16.5733 31.875L16.8745 29.6726Z" fill="#00CCBE"/>
<path fill-rule="evenodd" clip-rule="evenodd" d="M18.3961 30L18.125 32.2289L20.3238 32.5L20.625 30.2711L18.3961 30Z" fill="#00CCBE"/>
<path fill-rule="evenodd" clip-rule="evenodd" d="M24.3745 30.2976L22.1721 30L21.8745 32.2024L24.0769 32.5L24.3745 30.2976Z" fill="#00CCBE"/>
<path fill-rule="evenodd" clip-rule="evenodd" d="M28.125 30.9226L25.9262 30.625L25.625 32.8274L27.8539 33.125L28.125 30.9226Z" fill="#00CCBE"/>
<path fill-rule="evenodd" clip-rule="evenodd" d="M31.874 31.521L29.6752 31.25L29.374 33.4789L31.603 33.75L31.874 31.521Z" fill="#00CCBE"/>
<path fill-rule="evenodd" clip-rule="evenodd" d="M35.6255 32.1726L33.3933 31.875L33.1255 34.0773L35.3278 34.375L35.6255 32.1726Z" fill="#00CCBE"/>
<path fill-rule="evenodd" clip-rule="evenodd" d="M39.375 32.1726L37.1726 31.875L36.875 34.0773L39.0773 34.375L39.375 32.1726Z" fill="#00CCBE"/>
<path fill-rule="evenodd" clip-rule="evenodd" d="M16.25 33.4226L14.0211 33.125L13.75 35.3273L15.9488 35.625L16.25 33.4226Z" fill="#00CCBE"/>
<path fill-rule="evenodd" clip-rule="evenodd" d="M17.7706 33.75L17.4995 35.9789L19.6983 36.25L19.9995 34.0211L17.7706 33.75Z" fill="#00CCBE"/>
<path fill-rule="evenodd" clip-rule="evenodd" d="M23.7495 34.6726L21.5471 34.375L21.2495 36.5774L23.4519 36.875L23.7495 34.6726Z" fill="#00CCBE"/>
<path fill-rule="evenodd" clip-rule="evenodd" d="M27.5 35.2976L25.3012 35L25 37.2024L27.2289 37.5L27.5 35.2976Z" fill="#00CCBE"/>
<path fill-rule="evenodd" clip-rule="evenodd" d="M31.2495 35.2711L29.0508 35L28.7495 37.2289L30.9784 37.5L31.2495 35.2711Z" fill="#00CCBE"/>
<path fill-rule="evenodd" clip-rule="evenodd" d="M35 35.9226L32.7976 35.625L32.5 37.8274L34.7023 38.125L35 35.9226Z" fill="#00CCBE"/>
<path fill-rule="evenodd" clip-rule="evenodd" d="M38.749 36.5476L36.5467 36.25L36.249 38.4524L38.4514 38.75L38.749 36.5476Z" fill="#00CCBE"/>
<path fill-rule="evenodd" clip-rule="evenodd" d="M15.6245 37.7976L13.3956 37.5L13.1245 39.7024L15.3233 40L15.6245 37.7976Z" fill="#00CCBE"/>
<path fill-rule="evenodd" clip-rule="evenodd" d="M19.3745 37.7679L17.1456 37.5L16.8745 39.7024L19.0733 40L19.3745 37.7679Z" fill="#00CCBE"/>
<path fill-rule="evenodd" clip-rule="evenodd" d="M23.125 38.396L20.9226 38.125L20.625 40.3237L22.8274 40.625L23.125 38.396Z" fill="#00CCBE"/>
<path fill-rule="evenodd" clip-rule="evenodd" d="M26.8745 39.0476L24.6721 38.75L24.3745 40.9523L26.5769 41.25L26.8745 39.0476Z" fill="#00CCBE"/>
<path fill-rule="evenodd" clip-rule="evenodd" d="M30.6245 39.646L28.4258 39.375L28.1245 41.5738L30.3534 41.875L30.6245 39.646Z" fill="#00CCBE"/>
</svg>
