<svg width="96" height="96" viewBox="0 0 96 96" fill="none" xmlns="http://www.w3.org/2000/svg">
<g clip-path="url(#clip0)">
<path d="M77.3228 18.6874C76.2698 17.6344 75.191 16.6523 74.0885 15.7432C66.6594 9.61209 57.9645 6.54544 47.9995 6.54544C41.6233 6.54544 35.7673 7.80262 30.4313 10.317C26.1912 12.3091 22.28 15.0985 18.6976 18.6874C10.5958 26.7827 6.54492 36.5522 6.54492 48C6.54492 55.3776 8.2276 62.0589 11.5951 68.0396H84.4146C87.7735 62.0589 89.454 55.3776 89.454 48C89.454 36.5522 85.4096 26.7827 77.3228 18.6874Z" fill="#00C7BB"/>
<path d="M11.5943 68.0397C11.7082 68.2482 11.8243 68.4524 11.9381 68.6522H22.2212V58.5518H9.53125V63.7954C10.1265 65.2503 10.8142 66.6644 11.5943 68.0397ZM37.0602 70.264V46.2272H24.3917V70.264H37.0602ZM66.6306 15.3888H53.9407V71.4674H66.6306V15.3888ZM51.8347 30.8295H39.1555V70.4681H51.8347V30.8295Z" fill="#FABE00"/>
<path d="M33.6333 10.9725L38.5223 15.8722L17.5264 36.8466V36.8574L6.54492 47.8389C6.54492 47.8969 6.54492 47.9506 6.54492 48C6.54492 50.9378 6.80925 53.7594 7.34006 56.4672L43.4436 20.7827L48.2574 25.5965V10.9725H33.6333Z" fill="white"/>
<path d="M77.3234 77.3126C78.0691 76.5604 78.7847 75.7911 79.4724 75.0024C80.5469 73.7624 81.5419 72.4924 82.4595 71.1879C83.1623 70.1628 83.8134 69.1141 84.4151 68.0396H11.5957C12.1974 69.1141 12.8529 70.1628 13.5621 71.1879C14.4646 72.4924 15.4575 73.7624 16.5384 75.0024C17.0821 75.6321 17.6559 76.2531 18.2577 76.8613C18.4016 77.0117 18.5478 77.1622 18.6982 77.3126C26.785 85.4079 36.5522 89.4545 48.0001 89.4545C52.5925 89.4545 56.912 88.8055 60.9586 87.5097C67.0124 85.5605 72.4666 82.1629 77.3234 77.3126Z" fill="#017C88"/>
<path d="M43.3574 77.2158C42.4613 76.8354 41.4835 76.6463 40.424 76.6463C39.371 76.6463 38.3975 76.8354 37.5014 77.2158C37.4305 77.2523 37.3552 77.2846 37.2757 77.3125C37.2607 77.2846 37.2435 77.2523 37.222 77.2158C36.7643 76.4787 36.2077 75.7802 35.5565 75.1205C33.371 72.9435 30.7363 71.854 27.6481 71.854C25.2993 71.854 23.2104 72.4879 21.3837 73.7559C20.739 72.5159 19.8859 71.364 18.8264 70.2959C16.527 68.0029 13.8192 66.6921 10.7031 66.3633C10.9868 66.9263 11.2834 67.485 11.595 68.0395C12.1967 69.114 12.8521 70.1627 13.5613 71.1878C14.4639 72.4923 15.4568 73.7623 16.5377 75.0023C17.0814 75.632 17.6552 76.253 18.2569 76.8612C18.4009 77.0116 18.547 77.1621 18.6975 77.3125C19.6688 78.2839 20.6638 79.1972 21.6846 80.0525H46.7744C46.495 79.6377 46.1662 79.2423 45.7858 78.8705C45.0487 78.1334 44.2385 77.5811 43.3574 77.2158Z" fill="white"/>
<path d="M47.1074 59.6047L47.1504 62.3447L61.3232 68.9207L63.6226 59.2931L47.1074 59.6047Z" fill="#450064"/>
<path d="M50.5572 78.516C51.6166 77.4695 52.1474 76.2123 52.1474 74.7445C52.1474 73.2617 51.6166 71.9938 50.5572 70.9408C49.5106 69.9028 48.2534 69.3827 46.7856 69.3827C45.3028 69.3827 44.0349 69.9028 42.9819 70.9408C41.9439 71.9938 41.4238 73.2617 41.4238 74.7445C41.4238 76.2123 41.9439 77.4695 42.9819 78.516C44.0349 79.5755 45.3028 80.1063 46.7856 80.1063C48.2534 80.1063 49.5106 79.5755 50.5572 78.516Z" fill="#440062"/>
<path d="M45.377 73.8527L46.6986 76.0769L58.7653 74.5297L51.8133 67.5668L45.377 73.8527Z" fill="#90A6A6"/>
<path d="M80.4068 70.9408C79.3602 69.9028 78.103 69.3827 76.6352 69.3827C75.1524 69.3827 73.8845 69.9028 72.8315 70.9408C71.7935 71.9938 71.2734 73.2617 71.2734 74.7445C71.2734 76.2123 71.7935 77.4695 72.8315 78.516C73.8845 79.5755 75.1524 80.1063 76.6352 80.1063C78.103 80.1063 79.3602 79.5755 80.4068 78.516C81.4662 77.4695 81.997 76.2123 81.997 74.7445C81.997 73.2617 81.4662 71.9938 80.4068 70.9408Z" fill="#440062"/>
<path d="M73.939 63.9673L71.9941 64.9451L75.3896 75.4108L77.3452 74.433L73.939 63.9673Z" fill="#90A6A6"/>
<path d="M77.1195 65.0631L71.5535 59.3682L68.8242 72.1119L68.7168 72.7566H68.8565L77.1195 65.0631Z" fill="#450064"/>
<path d="M54.8327 63.924L52.8234 62.7958H45.0332L59.0448 76.1412H68.7691L81.7169 64.4613L72.8093 52.9855L71.5521 59.3681L77.118 65.063L68.8551 72.7565H68.7154L68.8228 72.1118L68.7154 72.649L54.8327 63.924Z" fill="#FB5058"/>
<path d="M44.6367 62.4197L45.0343 62.7958H52.8245L47.1296 59.54L44.6367 62.4197Z" fill="white"/>
<path d="M76.174 52.513L72.9827 52.3303L72.0801 56.1019H78.1403L76.174 52.513Z" fill="#450064"/>
<path d="M62.9134 43.6268L61.8496 45.2493L66.2229 47.1834L67.7379 45.4105L62.9134 43.6268Z" fill="#440063"/>
<path d="M60.5286 42.7028L46.0013 38.0609L41.3594 52.5882L55.8867 57.2301L60.5286 42.7028Z" fill="#017C88"/>
<path d="M66.2347 70.3929L64.9452 69.5547H62.2482L61.5605 72.6816L67.1587 72.875C67.5885 71.8155 67.2812 70.9881 66.2347 70.3929Z" fill="#017C88"/>
<path d="M58.9379 56.8111C58.3835 56.6714 57.857 56.7466 57.3584 57.0367C56.8684 57.3354 56.5482 57.7609 56.4021 58.3154C56.2624 58.8698 56.3376 59.392 56.6277 59.8842C56.9243 60.3827 57.3519 60.7008 57.9064 60.8405L64.2997 62.4845L62.2689 69.3936L66.2553 70.5648L68.8557 61.6893C68.8793 61.6335 68.8986 61.5754 68.9094 61.5174C69.0555 60.963 68.9803 60.4365 68.6837 59.9379C68.3936 59.4479 67.9703 59.1277 67.4158 58.9816L58.9379 56.8111Z" fill="#9B006C"/>
<path d="M59.6897 44.723L55.0586 59.4975L64.5358 53.1364L65.1053 50.5146L59.6897 44.723Z" fill="#91A7A7"/>
<path d="M55.0586 59.4974L54.9082 59.9916L63.1389 59.8412L64.5358 53.1363L55.0586 59.4974ZM59.7542 44.5187L59.6898 44.7229L65.1053 50.5145L65.1805 50.1384L69.6612 48.0431L59.7542 44.5187Z" fill="#017C88"/>
<path d="M60.8834 47.022L58.6914 51.3738L72.7997 57.2836L74.1321 53.3509L60.8834 47.022Z" fill="#90A6A6"/>
<path d="M71.6179 43.616C71.7404 43.2657 71.8435 42.924 71.9295 42.5952C72.0305 42.1934 72.0842 41.8925 72.0906 41.6927L65.5039 38.8667L66.2131 42.7564L71.231 44.9377L71.6179 43.616Z" fill="#440063"/>
<path d="M61.0977 41.1769C61.0977 41.9355 61.233 42.6382 61.506 43.2829L70.4566 47.2264L71.2303 44.9377L66.2123 42.7564L65.5031 38.8667L72.0899 41.6926C72.0963 41.3982 72.1006 41.2263 72.1006 41.1769C72.1006 39.6575 71.5634 38.3617 70.4888 37.2871C69.4143 36.2126 68.1185 35.6754 66.5991 35.6754C65.5246 35.6754 64.564 35.944 63.7195 36.4813C63.3606 36.7026 63.0253 36.9712 62.7094 37.2871C62.4451 37.5515 62.2108 37.8309 62.011 38.1253C61.4028 39.0128 61.0977 40.0314 61.0977 41.1769Z" fill="#FB5058"/>
</g>
<defs>
<clipPath id="clip0">
<rect width="82.9091" height="82.9091" fill="white" transform="translate(6.54492 6.54544)"/>
</clipPath>
</defs>
</svg>
