<svg width="64" height="64" viewBox="0 0 64 64" fill="none" xmlns="http://www.w3.org/2000/svg">
<path d="M59.636 32C59.636 24.3744 56.9363 17.862 51.537 12.4626C46.1377 7.06331 39.6252 4.36365 31.9996 4.36365C24.3741 4.36365 17.8488 7.06331 12.4239 12.4626C7.05015 17.862 4.36328 24.3744 4.36328 32C4.36328 39.6256 7.05015 46.1381 12.4239 51.5374C17.8488 56.9367 24.3741 59.6364 31.9996 59.6364C39.6252 59.6364 46.1377 56.9367 51.537 51.5374C56.9363 46.1381 59.636 39.6256 59.636 32Z" fill="#02E0D1"/>
<path d="M25.475 48.9272C20.6279 48.9272 17.2117 50.6289 15.2266 54.0323C20.0575 57.7683 25.6488 59.6363 32.0003 59.6363C38.3824 59.6363 43.9481 57.7555 48.6973 53.9939C46.73 50.6161 43.3266 48.9272 38.4872 48.9272H25.475Z" fill="#9C006D"/>
<path d="M25.9746 49.004V55.5677H37.9888V49.004H25.9746Z" fill="white"/>
<path d="M25.9355 49.1575L32.3073 55.5292L38.0265 49.1191V47.8141H25.9355V49.1575Z" fill="#FF9966"/>
<path d="M38.0265 41.5576C38.0265 39.8687 37.4379 38.4485 36.2608 37.297C35.0837 36.0943 33.6507 35.4929 31.9618 35.4929C30.2985 35.4929 28.8783 36.0943 27.7012 37.297C26.5241 38.4485 25.9355 39.8687 25.9355 41.5576V47.8141H38.0265V41.5576Z" fill="#DF7E4E"/>
<path d="M38.6407 20.7151C40.5088 18.8471 41.4428 16.6081 41.4428 13.998C41.4428 11.3623 40.5088 9.1232 38.6407 7.28078C36.7983 5.41277 34.5721 4.47876 31.962 4.47876C29.3519 4.47876 27.1128 5.41277 25.2448 7.28078C23.4279 9.1232 22.5195 11.3623 22.5195 13.998C22.5195 16.6081 23.4279 18.8471 25.2448 20.7151C27.1128 22.5575 29.3519 23.4788 31.962 23.4788C34.5721 23.4788 36.7983 22.5575 38.6407 20.7151Z" fill="#FA5058"/>
<path d="M45.7413 29.6586C45.1527 29.07 44.4106 28.7758 43.515 28.7758H20.4463C19.5507 28.7758 18.8086 29.07 18.22 29.6586C17.6059 30.2727 17.2988 31.0148 17.2988 31.8848C17.2988 32.7549 17.6059 33.497 18.22 34.1111C18.8086 34.7253 19.5507 35.0323 20.4463 35.0323H43.515C44.4106 35.0323 45.1527 34.7253 45.7413 34.1111C46.3554 33.497 46.6625 32.7549 46.6625 31.8848C46.6625 31.0148 46.3554 30.2727 45.7413 29.6586Z" fill="#FF9966"/>
<path d="M22.174 35.9152C22.8649 34.9172 23.2104 33.7145 23.2104 32.3071C23.2104 30.8741 22.8649 29.6586 22.174 28.6607C21.4831 27.6627 20.6387 27.1637 19.6407 27.1637C18.6683 27.1637 17.8239 27.6627 17.1074 28.6607C16.442 29.6586 16.1094 30.8741 16.1094 32.3071C16.1094 33.7145 16.442 34.9172 17.1074 35.9152C17.8239 36.9388 18.6683 37.4506 19.6407 37.4506C20.6387 37.4506 21.4831 36.9388 22.174 35.9152Z" fill="#9C006D"/>
<path d="M46.7775 35.9152C47.494 34.9172 47.8523 33.7017 47.8523 32.2687C47.8523 30.8613 47.494 29.6459 46.7775 28.6223C46.0866 27.6499 45.255 27.1637 44.2826 27.1637C43.2846 27.1637 42.4402 27.6499 41.7493 28.6223C41.0583 29.6459 40.7129 30.8613 40.7129 32.2687C40.7129 33.7017 41.0583 34.9172 41.7493 35.9152C42.4402 36.9132 43.2846 37.4122 44.2826 37.4122C45.255 37.4122 46.0866 36.9132 46.7775 35.9152Z" fill="#9C006D"/>
<path d="M42.5557 25.0525C42.5557 22.1353 41.5066 19.6276 39.4083 17.5293C37.3611 15.5077 34.879 14.4969 31.9618 14.4969C29.0702 14.4969 26.5881 15.5077 24.5153 17.5293C22.4426 19.6276 21.4062 22.1353 21.4062 25.0525V34.4182C21.4062 37.3097 22.4426 39.8047 24.5153 41.903C26.5881 43.9757 29.0702 45.0121 31.9618 45.0121C34.879 45.0121 37.3611 43.9757 39.4083 41.903C41.5066 39.8047 42.5557 37.3097 42.5557 34.4182V25.0525Z" fill="#FF9966"/>
<path d="M43.8982 24.4383C43.8982 21.1629 42.7339 18.3481 40.4053 15.9939C38.0766 13.6653 35.2618 12.501 31.9608 12.501C28.711 12.501 25.909 13.6653 23.5548 15.9939C21.2005 18.3481 20.0234 21.1629 20.0234 24.4383L20.1002 28.699L21.4436 28.8525C22.851 24.272 25.1157 21.1757 28.2376 19.5636C31.5642 24.4511 36.746 27.637 43.783 29.1212L43.8982 24.4383Z" fill="#FA5058"/>
<path d="M39.3696 20.792C41.4439 22.855 42.4803 25.3499 42.4787 28.2768V33.6889C42.4814 34.0042 42.5965 34.2729 42.8241 34.495C43.0462 34.7226 43.3149 34.8378 43.6302 34.8405C43.9455 34.8378 44.2141 34.7226 44.4363 34.495C44.6639 34.2729 44.779 34.0042 44.7817 33.6889V28.2768C44.7801 24.7039 43.5134 21.6588 40.9817 19.1415C38.4806 16.7104 35.4738 15.4949 31.9615 15.495C28.4209 15.4949 25.4142 16.7104 22.9413 19.1415V19.1798C20.4373 21.6783 19.1834 24.7106 19.1797 28.2768V33.6889C19.1824 34.0042 19.2975 34.2729 19.5251 34.495C19.7472 34.7226 20.0159 34.8378 20.3312 34.8405C20.6465 34.8378 20.9152 34.7226 21.1373 34.495C21.3649 34.2729 21.48 34.0042 21.4827 33.6889V28.2768C21.4789 25.3432 22.5025 22.8483 24.5534 20.792C26.5842 18.7961 29.0535 17.7981 31.9615 17.798C34.8464 17.7981 37.3158 18.7961 39.3696 20.792Z" fill="#9C006D"/>
<path d="M34.2253 37.4505C34.8139 37.0155 35.1081 36.5037 35.1081 35.9152C35.1081 35.2754 34.8139 34.7509 34.2253 34.3414C33.5856 33.932 32.8307 33.7273 31.9607 33.7273C31.0906 33.7273 30.3613 33.932 29.7728 34.3414C29.1586 34.7509 28.8516 35.2754 28.8516 35.9152C28.8516 36.5037 29.1586 37.0155 29.7728 37.4505C30.3613 37.8344 31.0906 38.0263 31.9607 38.0263C32.8307 38.0263 33.5856 37.8344 34.2253 37.4505Z" fill="#FA5058"/>
<path d="M18.5662 34.9556C18.3386 35.1777 18.2234 35.4464 18.2207 35.7616C18.2269 37.4622 18.8155 38.8952 19.9864 40.0606C21.1824 41.2621 22.6154 41.8635 24.2853 41.8647H28.7379C29.0531 41.862 29.3218 41.7468 29.5439 41.5192C29.7715 41.2971 29.8867 41.0284 29.8894 40.7131C29.8867 40.3979 29.7715 40.1292 29.5439 39.9071C29.3218 39.6795 29.0531 39.5643 28.7379 39.5616H24.2853C23.2428 39.5627 22.3472 39.1917 21.5985 38.4485C20.8757 37.7202 20.5174 36.8246 20.5237 35.7616C20.521 35.4464 20.4059 35.1777 20.1783 34.9556C19.9562 34.728 19.6875 34.6128 19.3722 34.6101C19.057 34.6128 18.7883 34.728 18.5662 34.9556Z" fill="#440063"/>
</svg>
