<svg width="96" height="96" viewBox="0 0 96 96" fill="none" xmlns="http://www.w3.org/2000/svg">
<path d="M47.9995 89.4545C70.8942 89.4545 89.454 70.8947 89.454 48C89.454 25.1053 70.8942 6.54546 47.9995 6.54546C25.1047 6.54546 6.54492 25.1053 6.54492 48C6.54492 70.8947 25.1047 89.4545 47.9995 89.4545Z" fill="#FABE00"/>
<path d="M45.6074 20.0208L45.6756 29.9699C48.8136 31.0036 53.1847 34.6191 57.073 32.8192L62.2102 25.5044L45.6074 20.0208Z" fill="#00CCBE"/>
<path d="M45.1282 52.1087C45.8629 52.2609 46.4244 52.6597 46.8179 53.3051C47.2115 53.9506 47.3269 54.6642 47.1642 55.4408C46.9963 56.2069 46.5923 56.8156 45.9678 57.2512C45.3381 57.692 44.6612 57.8336 43.9266 57.6815C43.1972 57.5398 42.6357 57.1462 42.2422 56.5008C41.8486 55.8554 41.7332 55.147 41.9063 54.3808C42.0743 53.6042 42.4678 52.9903 43.0975 52.5547C43.7219 52.114 44.3989 51.967 45.1282 52.1087Z" fill="#3ABEB6"/>
<path d="M31.0716 48.3778L27.4194 63.4221L20.666 61.5068L24.1346 46.7564L31.0716 48.3778Z" fill="#00CCBE"/>
<path d="M39.6876 29.9804C40.6741 30.0119 41.4927 30.4054 42.1486 31.1611C42.794 31.9167 43.0879 32.814 43.0302 33.8582C42.9619 34.8972 42.5631 35.7683 41.8233 36.4767L30.8194 49.3066L30.5308 50.5502L23.5938 48.9288L24.108 46.6619C24.2812 45.8853 24.6537 45.2189 25.2257 44.6731L37.0848 31.0194C37.83 30.3057 38.6958 29.9594 39.6876 29.9804Z" fill="#90A6A6"/>
<path d="M32.9396 52.5128L56.2223 60.9349L50.319 75.5174L28.9883 69.5511L32.9396 52.5128Z" fill="#00CCBE"/>
<path d="M59.8324 33.0921C63.4269 34.5561 63.7155 35.2278 64.7283 38.8748L56.2222 60.9401L32.9395 52.5128L34.6449 44.8411L36.7228 33.302C37.0639 29.9384 39.0422 28.4954 42.6472 28.9781L59.8324 33.0921Z" fill="#90A6A6"/>
<path d="M56.9453 71.8285L61.6627 55.1207L69.3082 57.0938L64.6065 72.8255L56.9453 71.8285Z" fill="#00CCBE"/>
<path d="M69.3878 54.6642C69.561 55.2677 69.5872 55.8816 69.4665 56.5008L68.4013 60.1163L60.7138 58.4791L61.6636 55.1207L57.749 40.7533C57.4604 39.7721 57.5496 38.8223 58.0219 37.8882C58.4837 36.9542 59.1921 36.314 60.1419 35.9677C61.0864 35.6266 61.989 35.6843 62.86 36.1356C63.7311 36.5921 64.3136 37.3163 64.6074 38.2975L69.3878 54.6642Z" fill="#90A6A6"/>
<path d="M38.9062 72.2798L39.9557 72.6628L51.9408 31.2608L50.9123 30.7832L38.9062 72.2798Z" fill="#067F8A"/>
<path d="M54.7268 23.0328L53.5934 22.655L44.8984 51.5735" fill="#067F8A"/>
<path d="M47.3809 37.7466L53.6987 38.2503L52.9903 31.0194L49.7107 30.5891L47.3809 37.7466ZM52.5915 37.1116L49.5323 36.5029L50.1935 34.0052L52.3449 34.383L52.5915 37.1116Z" fill="white"/>
</svg>
