<svg width="96" height="96" viewBox="0 0 96 96" fill="none" xmlns="http://www.w3.org/2000/svg">
<path d="M89.454 47.9712C89.454 36.5249 85.4045 26.7686 77.3055 18.7024C69.2449 10.5978 59.4762 6.54546 47.9995 6.54546C36.5611 6.54546 26.7924 10.5978 18.6934 18.7024C10.5944 26.7686 6.54492 36.5249 6.54492 47.9712C6.54492 59.4559 10.5944 69.2314 18.6934 77.2976C26.7924 85.4022 36.5611 89.4545 47.9995 89.4545C59.4762 89.4545 69.2449 85.4022 77.3055 77.2976C85.4045 69.2314 89.454 59.4559 89.454 47.9712Z" fill="#EAEAEA"/>
<path d="M75.4833 85.5953V41.7288H20.5215V85.5953H75.4833Z" fill="#00CCBE"/>
<path d="M40.4679 22.1432C40.4679 21.5643 40.2621 21.0691 39.8569 20.6638C39.4517 20.2586 38.9564 20.0528 38.3775 20.0528C37.7986 20.0528 37.3034 20.2586 36.8982 20.6638C36.4929 21.0691 36.2871 21.5643 36.2871 22.1432V28.5753C36.2871 29.1541 36.4929 29.6494 36.8982 30.0546C37.3034 30.4598 37.7986 30.6657 38.3775 30.6657C38.9564 30.6657 39.4517 30.4598 39.8569 30.0546C40.2621 29.6494 40.4679 29.1541 40.4679 28.5753V22.1432Z" fill="#FF9966"/>
<path d="M61.7262 25.1663H34.2871V59.7707H61.7262V25.1663ZM39.7801 31.1159H56.1947V53.821H39.7801V31.1159Z" fill="#00CCBE"/>
<path d="M50.694 6.96352H44.4871C43.9082 6.96352 43.413 7.16934 43.0077 7.57456C42.6025 7.97978 42.3967 8.47505 42.3967 9.05393V14.2961L36.8008 20.7924C36.4149 21.2234 36.2412 21.7251 36.2863 22.3039C36.3313 22.8635 36.5757 23.3331 37.0259 23.719C37.4569 24.1049 37.9586 24.2786 38.5375 24.2336C39.0327 24.1885 39.4508 24.0084 39.7917 23.6868V36.7439C39.7917 37.3228 39.9975 37.818 40.4028 38.2233C40.808 38.6285 41.3033 38.8343 41.8821 38.8343C42.461 38.8343 42.9563 38.6285 43.3615 38.2233C43.6831 37.9017 43.8761 37.535 43.9404 37.1298C44.0047 37.535 44.1977 37.9017 44.5193 38.2233C44.9245 38.6285 45.4198 38.8343 45.9987 38.8343C46.5775 38.8343 47.0728 38.6285 47.478 38.2233C47.7803 37.921 47.9733 37.5929 48.0569 37.2263C48.1212 37.5929 48.3013 37.921 48.6036 38.2233C49.0088 38.6285 49.5041 38.8343 50.083 38.8343C50.6619 38.8343 51.1572 38.6285 51.5624 38.2233C51.8197 37.966 51.9998 37.6765 52.1091 37.3549C52.1927 37.6765 52.3664 37.966 52.6237 38.2233C53.0289 38.6285 53.5241 38.8343 54.103 38.8343C54.6819 38.8343 55.1772 38.6285 55.5824 38.2233C55.9876 37.818 56.1934 37.3228 56.1934 36.7439V22.5612C56.1934 22.3232 56.1613 22.0981 56.097 21.8859L52.8488 12.4308L52.7845 9.02177C52.7845 8.44289 52.5786 7.96048 52.1734 7.57456C51.7618 7.16934 51.2729 6.96352 50.694 6.96352Z" fill="#FF9966"/>
<path d="M55.4192 7.15362C53.031 6.74993 50.5592 6.54743 48.0025 6.54743C44.9062 6.54743 41.934 6.8453 39.082 7.43712V13.2051H55.4192V7.15362Z" fill="#FA5058"/>
<path d="M50.6946 61.8611L48.1218 51.8914L42.1721 53.6281L44.5842 63.0832L35.6758 65.1736L37.7984 72.9564L53.6534 75.6257L56.998 67.4891L57.9307 50.8945L51.7881 50.0261L50.6946 61.8611ZM52.1418 66.3957C52.1418 66.5436 52.1097 66.6723 52.0453 66.7816C52.0003 66.9102 51.9296 67.026 51.8202 67.1354C51.6273 67.3927 51.37 67.5084 51.0484 67.4891C50.8104 67.4441 50.5853 67.3283 50.373 67.1354C50.2444 67.0518 50.1608 66.9295 50.1157 66.7816C50.0514 66.6723 50.0192 66.5565 50.0192 66.4278C49.9549 66.1899 50.0321 65.9454 50.2444 65.6882C50.418 65.4952 50.6817 65.3987 51.0484 65.3987C51.37 65.418 51.608 65.5145 51.7559 65.6882C51.9489 65.9068 52.0775 66.1384 52.1418 66.3957ZM45.7098 66.7495C45.4718 66.5758 45.3753 66.3442 45.4203 66.0419C45.401 65.7653 45.4975 65.5145 45.7098 65.3022C45.8577 65.1093 46.0764 64.9999 46.353 64.9806C46.6296 64.9613 46.8868 65.045 47.1248 65.2379C47.2728 65.4759 47.3821 65.7332 47.4464 66.0098C47.5108 66.267 47.4336 66.5115 47.2213 66.7495C47.0476 66.9617 46.8225 67.0582 46.5459 67.0389C46.2243 67.1032 45.9478 67.0067 45.7098 66.7495Z" fill="white"/>
</svg>
